<svg xmlns="http://www.w3.org/2000/svg" viewBox="0 0 24 24">
    <circle cx="12" cy="12" r="11" fill="#fa412d" fill-opacity="0.1" stroke="#fa412d" stroke-opacity="0.2" stroke-width="0.5"/>
    <g fill="#fa412d">
        <path d="M8.5 2C6.5 2 5 3.5 5 5.5h1.5C6.5 4.5 7.5 4 8.5 4s2 1 2 2.5c0 1.5-2 1.3-2 3.5h1.5c0-1.5 2-1.7 2-3.5 0-2-1.5-3.5-3.5-3.5zm-1 11h2v2h-2v-2z"/>
        <path d="M15.5 2C13.5 2 12 3.5 12 5.5h1.5C13.5 4.5 14.5 4 15.5 4s2 1 2 2.5c0 1.5-2 1.3-2 3.5h1.5c0-1.5 2-1.7 2-3.5 0-2-1.5-3.5-3.5-3.5zm-1 11h2v2h-2v-2z"/>
    </g>
</svg>
